<mxfile host="app.diagrams.net" modified="2023-11-02T19:07:10.984Z" agent="Mozilla/5.0 (X11; Linux x86_64) AppleWebKit/537.36 (KHTML, like Gecko) Chrome/119.0.0.0 Safari/537.36" version="22.0.8" etag="G_NQG-mSatnKJliQtt9n" type="github">
  <diagram name="Page-1" id="klOLATzVOazu2ZO2MSHW">
    <mxGraphModel>
      <root>
        <mxCell id="0" />
        <mxCell id="1" parent="0" />
      </root>
    </mxGraphModel>
  </diagram>
</mxfile>
